<svg width="84" height="51" viewBox="0 0 84 51" fill="none" xmlns="http://www.w3.org/2000/svg">
<path d="M0 8C0 3.58172 3.58172 0 8 0H76C80.4183 0 84 3.58172 84 8V29C84 33.4183 80.4183 37 76 37H8C3.58172 37 0 33.4183 0 29V8Z" fill="#274C5B"/>
<path d="M23.5815 23H21.3477V12.292H27.4854V14.1523H23.5815V16.9136H27.2144V18.7666H23.5815V23ZM34.3346 14.6577C34.4469 14.6577 34.5763 14.665 34.7228 14.6797C34.8742 14.6895 34.9962 14.7041 35.089 14.7236L34.9205 16.8184C34.8473 16.7939 34.7423 16.7769 34.6056 16.7671C34.4738 16.7524 34.359 16.7451 34.2614 16.7451C33.9733 16.7451 33.6925 16.7817 33.4191 16.855C33.1505 16.9282 32.9088 17.0479 32.694 17.2139C32.4791 17.375 32.3082 17.5898 32.1813 17.8584C32.0592 18.1221 31.9982 18.4468 31.9982 18.8325V23H29.7643V14.8115H31.4562L31.7858 16.1885H31.8956C32.0568 15.9102 32.257 15.6562 32.4962 15.4268C32.7404 15.1924 33.0162 15.0068 33.3239 14.8701C33.6364 14.7285 33.9733 14.6577 34.3346 14.6577ZM44.4505 14.8115V23H42.7366L42.4363 21.9526H42.3191C42.1433 22.231 41.9236 22.458 41.6599 22.6338C41.3963 22.8096 41.1057 22.939 40.7884 23.022C40.471 23.105 40.1414 23.1465 39.7996 23.1465C39.2137 23.1465 38.7034 23.0439 38.2688 22.8389C37.8343 22.6289 37.4949 22.3042 37.2508 21.8647C37.0115 21.4253 36.8919 20.854 36.8919 20.1509V14.8115H39.1258V19.5942C39.1258 20.1802 39.2307 20.6221 39.4407 20.9199C39.6507 21.2178 39.9851 21.3667 40.4441 21.3667C40.8982 21.3667 41.2547 21.2642 41.5135 21.0591C41.7722 20.8491 41.9529 20.5439 42.0554 20.1436C42.1629 19.7383 42.2166 19.2451 42.2166 18.6641V14.8115H44.4505ZM23.4058 41.8115V50H21.1719V41.8115H23.4058ZM22.2925 38.6035C22.6245 38.6035 22.9102 38.6816 23.1494 38.8379C23.3887 38.9893 23.5083 39.2749 23.5083 39.6948C23.5083 40.1099 23.3887 40.3979 23.1494 40.5591C22.9102 40.7153 22.6245 40.7935 22.2925 40.7935C21.9556 40.7935 21.6675 40.7153 21.4282 40.5591C21.1938 40.3979 21.0767 40.1099 21.0767 39.6948C21.0767 39.2749 21.1938 38.9893 21.4282 38.8379C21.6675 38.6816 21.9556 38.6035 22.2925 38.6035ZM29.5665 48.3667C29.8107 48.3667 30.0475 48.3423 30.277 48.2935C30.5114 48.2446 30.7433 48.1836 30.9728 48.1104V49.7729C30.7335 49.8804 30.4357 49.9683 30.0792 50.0366C29.7277 50.1099 29.3419 50.1465 28.922 50.1465C28.4337 50.1465 27.9943 50.0684 27.6037 49.9121C27.2179 49.751 26.9127 49.4751 26.6881 49.0845C26.4684 48.689 26.3585 48.1396 26.3585 47.4365V43.4888H25.2892V42.5439L26.5197 41.7969L27.1642 40.0684H28.5924V41.8115H30.8849V43.4888H28.5924V47.4365C28.5924 47.749 28.6803 47.9834 28.8561 48.1396C29.0368 48.291 29.2736 48.3667 29.5665 48.3667ZM38.7083 47.5684C38.7083 48.125 38.5764 48.5962 38.3128 48.9819C38.054 49.3628 37.6658 49.6533 37.1482 49.8535C36.6306 50.0488 35.9861 50.1465 35.2146 50.1465C34.6433 50.1465 34.1526 50.1099 33.7425 50.0366C33.3372 49.9634 32.927 49.8413 32.512 49.6704V47.8247C32.9563 48.0249 33.4324 48.1909 33.9402 48.3228C34.4529 48.4497 34.9021 48.5132 35.2879 48.5132C35.7224 48.5132 36.0325 48.4497 36.218 48.3228C36.4085 48.1909 36.5037 48.02 36.5037 47.8101C36.5037 47.6733 36.4646 47.5513 36.3865 47.4438C36.3133 47.3315 36.1521 47.207 35.9031 47.0703C35.6541 46.9287 35.2635 46.7456 34.7312 46.521C34.2185 46.3062 33.7962 46.0889 33.4641 45.8691C33.137 45.6494 32.8929 45.3906 32.7317 45.0928C32.5755 44.79 32.4973 44.4067 32.4973 43.9429C32.4973 43.186 32.7903 42.6172 33.3763 42.2363C33.9671 41.8506 34.7556 41.6577 35.742 41.6577C36.2498 41.6577 36.7332 41.709 37.1922 41.8115C37.656 41.9141 38.1321 42.0776 38.6204 42.3022L37.9466 43.9136C37.5413 43.7378 37.158 43.5938 36.7967 43.4814C36.4402 43.3691 36.0764 43.313 35.7054 43.313C35.3782 43.313 35.1316 43.3569 34.9656 43.4448C34.7996 43.5327 34.7166 43.667 34.7166 43.8477C34.7166 43.9795 34.7581 44.0967 34.8411 44.1992C34.929 44.3018 35.095 44.4165 35.3391 44.5435C35.5882 44.6655 35.9519 44.8242 36.4304 45.0195C36.8943 45.21 37.2971 45.4102 37.6389 45.6201C37.9807 45.8252 38.2444 46.0815 38.43 46.3892C38.6155 46.6919 38.7083 47.085 38.7083 47.5684Z" fill="white"/>
</svg>
