<svg width="92" height="52" viewBox="0 0 92 52" fill="none" xmlns="http://www.w3.org/2000/svg">
<path d="M0 8C0 3.58172 3.58172 0 8 0H84C88.4183 0 92 3.58172 92 8V29C92 33.4183 88.4183 37 84 37H8C3.58172 37 0 33.4183 0 29V8Z" fill="#274C5B"/>
<path d="M25.8813 24L23.3032 15.5991H23.2373C23.2471 15.7993 23.2617 16.1021 23.2812 16.5073C23.3057 16.9077 23.3276 17.335 23.3472 17.7891C23.3667 18.2432 23.3765 18.6533 23.3765 19.0195V24H21.3477V13.292H24.4385L26.9727 21.4805H27.0166L29.7046 13.292H32.7954V24H30.6787V18.9316C30.6787 18.5947 30.6836 18.2065 30.6934 17.7671C30.708 17.3276 30.7251 16.9102 30.7446 16.5146C30.7642 16.1143 30.7788 15.814 30.7886 15.6138H30.7227L27.9614 24H25.8813ZM37.9162 15.8115V24H35.6823V15.8115H37.9162ZM36.8029 12.6035C37.1349 12.6035 37.4205 12.6816 37.6598 12.8379C37.8991 12.9893 38.0187 13.2749 38.0187 13.6948C38.0187 14.1099 37.8991 14.3979 37.6598 14.5591C37.4205 14.7153 37.1349 14.7935 36.8029 14.7935C36.466 14.7935 36.1779 14.7153 35.9386 14.5591C35.7042 14.3979 35.5871 14.1099 35.5871 13.6948C35.5871 13.2749 35.7042 12.9893 35.9386 12.8379C36.1779 12.6816 36.466 12.6035 36.8029 12.6035ZM42.8611 24H40.6272V12.6035H42.8611V24ZM47.8061 24H45.5722V12.6035H47.8061V24ZM24.5483 42.6577C25.3052 42.6577 25.957 42.8042 26.5039 43.0972C27.0508 43.3853 27.4731 43.8052 27.771 44.3569C28.0688 44.9087 28.2178 45.5825 28.2178 46.3784V47.4624H22.937C22.9614 48.0923 23.1494 48.5879 23.501 48.9492C23.8574 49.3057 24.3506 49.4839 24.9805 49.4839C25.5029 49.4839 25.9814 49.4302 26.416 49.3228C26.8506 49.2153 27.2974 49.0542 27.7563 48.8394V50.5679C27.3511 50.7681 26.9263 50.9146 26.4819 51.0073C26.0425 51.1001 25.5078 51.1465 24.8779 51.1465C24.0576 51.1465 23.3301 50.9951 22.6953 50.6924C22.0654 50.3896 21.5698 49.9282 21.2085 49.3081C20.8521 48.688 20.6738 47.9067 20.6738 46.9644C20.6738 46.0073 20.835 45.2114 21.1572 44.5767C21.4844 43.937 21.9385 43.4585 22.5195 43.1411C23.1006 42.8188 23.7769 42.6577 24.5483 42.6577ZM24.563 44.2471C24.1284 44.2471 23.7671 44.3862 23.479 44.6646C23.1958 44.9429 23.0322 45.3799 22.9883 45.9756H26.123C26.1182 45.6436 26.0571 45.3481 25.9399 45.0894C25.8276 44.8306 25.6567 44.6255 25.4272 44.4741C25.2026 44.3228 24.9146 44.2471 24.563 44.2471ZM33.8439 49.3667C34.088 49.3667 34.3248 49.3423 34.5543 49.2935C34.7887 49.2446 35.0206 49.1836 35.2501 49.1104V50.7729C35.0109 50.8804 34.713 50.9683 34.3566 51.0366C34.005 51.1099 33.6193 51.1465 33.1994 51.1465C32.7111 51.1465 32.2716 51.0684 31.881 50.9121C31.4953 50.751 31.1901 50.4751 30.9655 50.0845C30.7457 49.689 30.6359 49.1396 30.6359 48.4365V44.4888H29.5665V43.5439L30.797 42.7969L31.4415 41.0684H32.8698V42.8115H35.1622V44.4888H32.8698V48.4365C32.8698 48.749 32.9577 48.9834 33.1334 49.1396C33.3141 49.291 33.5509 49.3667 33.8439 49.3667ZM42.9856 48.5684C42.9856 49.125 42.8538 49.5962 42.5901 49.9819C42.3313 50.3628 41.9431 50.6533 41.4256 50.8535C40.908 51.0488 40.2635 51.1465 39.492 51.1465C38.9207 51.1465 38.43 51.1099 38.0198 51.0366C37.6145 50.9634 37.2044 50.8413 36.7893 50.6704V48.8247C37.2337 49.0249 37.7097 49.1909 38.2176 49.3228C38.7303 49.4497 39.1795 49.5132 39.5652 49.5132C39.9998 49.5132 40.3098 49.4497 40.4954 49.3228C40.6858 49.1909 40.781 49.02 40.781 48.8101C40.781 48.6733 40.742 48.5513 40.6638 48.4438C40.5906 48.3315 40.4295 48.207 40.1804 48.0703C39.9314 47.9287 39.5408 47.7456 39.0086 47.521C38.4959 47.3062 38.0735 47.0889 37.7415 46.8691C37.4143 46.6494 37.1702 46.3906 37.0091 46.0928C36.8528 45.79 36.7747 45.4067 36.7747 44.9429C36.7747 44.186 37.0677 43.6172 37.6536 43.2363C38.2444 42.8506 39.033 42.6577 40.0193 42.6577C40.5271 42.6577 41.0105 42.709 41.4695 42.8115C41.9334 42.9141 42.4095 43.0776 42.8977 43.3022L42.2239 44.9136C41.8186 44.7378 41.4353 44.5938 41.074 44.4814C40.7176 44.3691 40.3538 44.313 39.9827 44.313C39.6555 44.313 39.409 44.3569 39.2429 44.4448C39.0769 44.5327 38.9939 44.667 38.9939 44.8477C38.9939 44.9795 39.0354 45.0967 39.1184 45.1992C39.2063 45.3018 39.3723 45.4165 39.6165 45.5435C39.8655 45.6655 40.2293 45.8242 40.7078 46.0195C41.1717 46.21 41.5745 46.4102 41.9163 46.6201C42.2581 46.8252 42.5218 47.0815 42.7073 47.3892C42.8929 47.6919 42.9856 48.085 42.9856 48.5684Z" fill="white"/>
</svg>
