<svg width="118" height="37" viewBox="0 0 118 37" fill="none" xmlns="http://www.w3.org/2000/svg">
<path d="M0 8C0 3.58172 3.58172 0 8 0H110C114.418 0 118 3.58172 118 8V29C118 33.4183 114.418 37 110 37H8C3.58172 37 0 33.4183 0 29V8Z" fill="#274C5B"/>
<path d="M29.7485 13.292L26.1084 24H23.6328L20 13.292H22.2925L24.3066 19.6641C24.3408 19.7715 24.397 19.9741 24.4751 20.272C24.5532 20.5649 24.6313 20.8774 24.7095 21.2095C24.7925 21.5366 24.8486 21.8076 24.8779 22.0225C24.9072 21.8076 24.9585 21.5366 25.0317 21.2095C25.1099 20.8823 25.1855 20.5723 25.2588 20.2793C25.3369 19.9814 25.3931 19.7764 25.4272 19.6641L27.4561 13.292H29.7485ZM34.6642 15.6577C35.421 15.6577 36.0729 15.8042 36.6198 16.0972C37.1666 16.3853 37.589 16.8052 37.8869 17.3569C38.1847 17.9087 38.3336 18.5825 38.3336 19.3784V20.4624H33.0529C33.0773 21.0923 33.2653 21.5879 33.6168 21.9492C33.9733 22.3057 34.4664 22.4839 35.0963 22.4839C35.6188 22.4839 36.0973 22.4302 36.5319 22.3228C36.9664 22.2153 37.4132 22.0542 37.8722 21.8394V23.5679C37.4669 23.7681 37.0421 23.9146 36.5978 24.0073C36.1583 24.1001 35.6237 24.1465 34.9938 24.1465C34.1735 24.1465 33.4459 23.9951 32.8112 23.6924C32.1813 23.3896 31.6857 22.9282 31.3244 22.3081C30.9679 21.688 30.7897 20.9067 30.7897 19.9644C30.7897 19.0073 30.9508 18.2114 31.2731 17.5767C31.6002 16.937 32.0543 16.4585 32.6354 16.1411C33.2164 15.8188 33.8927 15.6577 34.6642 15.6577ZM34.6788 17.2471C34.2443 17.2471 33.8829 17.3862 33.5949 17.6646C33.3117 17.9429 33.1481 18.3799 33.1041 18.9756H36.2389C36.234 18.6436 36.173 18.3481 36.0558 18.0894C35.9435 17.8306 35.7726 17.6255 35.5431 17.4741C35.3185 17.3228 35.0304 17.2471 34.6788 17.2471ZM42.9051 27.6035C41.7625 27.6035 40.8885 27.4033 40.283 27.0029C39.6824 26.6074 39.3821 26.0508 39.3821 25.333C39.3821 24.8398 39.5359 24.4272 39.8435 24.0952C40.1512 23.7632 40.6028 23.5264 41.1985 23.3848C40.969 23.2871 40.7688 23.1284 40.5979 22.9087C40.427 22.6841 40.3416 22.4473 40.3416 22.1982C40.3416 21.8857 40.4319 21.627 40.6126 21.4219C40.7932 21.2119 41.0545 21.0068 41.3963 20.8066C40.9666 20.6211 40.6248 20.3232 40.3709 19.9131C40.1219 19.5029 39.9973 19.0195 39.9973 18.4629C39.9973 17.8672 40.1267 17.3618 40.3855 16.9468C40.6492 16.5269 41.0301 16.207 41.5281 15.9873C42.031 15.7676 42.6414 15.6577 43.3592 15.6577C43.5105 15.6577 43.6863 15.6675 43.8865 15.687C44.0867 15.7065 44.2698 15.7285 44.4358 15.7529C44.6067 15.7773 44.7215 15.7969 44.7801 15.8115H47.6365V16.9468L46.3548 17.2764C46.472 17.457 46.5598 17.6499 46.6184 17.855C46.677 18.0601 46.7063 18.2773 46.7063 18.5068C46.7063 19.3857 46.3987 20.0718 45.7835 20.5649C45.1731 21.0532 44.3235 21.2974 43.2346 21.2974C42.9759 21.2827 42.7317 21.2632 42.5022 21.2388C42.3899 21.3267 42.3045 21.4194 42.2459 21.5171C42.1873 21.6147 42.158 21.7173 42.158 21.8247C42.158 21.9321 42.2019 22.0225 42.2898 22.0957C42.3826 22.1641 42.5193 22.2178 42.7 22.2568C42.8855 22.291 43.115 22.3081 43.3885 22.3081H44.7801C45.6785 22.3081 46.3621 22.501 46.8308 22.8867C47.3045 23.2725 47.5413 23.8389 47.5413 24.5859C47.5413 25.543 47.1409 26.2852 46.3401 26.8125C45.5442 27.3398 44.3992 27.6035 42.9051 27.6035ZM43.0003 26.146C43.5325 26.146 43.989 26.0947 44.3699 25.9922C44.7556 25.8945 45.0511 25.7529 45.2561 25.5674C45.4612 25.3867 45.5637 25.1694 45.5637 24.9155C45.5637 24.7104 45.5027 24.5469 45.3806 24.4248C45.2635 24.3076 45.0828 24.2246 44.8387 24.1758C44.5994 24.127 44.2918 24.1025 43.9158 24.1025H42.7586C42.4851 24.1025 42.2386 24.1465 42.0188 24.2344C41.804 24.3223 41.6331 24.4443 41.5061 24.6006C41.3792 24.7617 41.3157 24.9473 41.3157 25.1572C41.3157 25.4648 41.4622 25.7065 41.7552 25.8823C42.053 26.0581 42.468 26.146 43.0003 26.146ZM43.3592 19.9351C43.7791 19.9351 44.0867 19.8057 44.282 19.5469C44.4773 19.2881 44.575 18.9365 44.575 18.4922C44.575 17.999 44.4724 17.6304 44.2674 17.3862C44.0672 17.1372 43.7644 17.0127 43.3592 17.0127C42.949 17.0127 42.6414 17.1372 42.4363 17.3862C42.2312 17.6304 42.1287 17.999 42.1287 18.4922C42.1287 18.9365 42.2288 19.2881 42.429 19.5469C42.6341 19.8057 42.9441 19.9351 43.3592 19.9351ZM52.7279 15.6577C53.4848 15.6577 54.1366 15.8042 54.6835 16.0972C55.2304 16.3853 55.6528 16.8052 55.9506 17.3569C56.2485 17.9087 56.3974 18.5825 56.3974 19.3784V20.4624H51.1166C51.141 21.0923 51.329 21.5879 51.6806 21.9492C52.037 22.3057 52.5302 22.4839 53.1601 22.4839C53.6825 22.4839 54.1611 22.4302 54.5956 22.3228C55.0302 22.2153 55.477 22.0542 55.936 21.8394V23.5679C55.5307 23.7681 55.1059 23.9146 54.6615 24.0073C54.2221 24.1001 53.6874 24.1465 53.0575 24.1465C52.2372 24.1465 51.5097 23.9951 50.8749 23.6924C50.245 23.3896 49.7494 22.9282 49.3881 22.3081C49.0317 21.688 48.8534 20.9067 48.8534 19.9644C48.8534 19.0073 49.0146 18.2114 49.3368 17.5767C49.664 16.937 50.1181 16.4585 50.6991 16.1411C51.2802 15.8188 51.9565 15.6577 52.7279 15.6577ZM52.7426 17.2471C52.308 17.2471 51.9467 17.3862 51.6586 17.6646C51.3754 17.9429 51.2118 18.3799 51.1679 18.9756H54.3027C54.2978 18.6436 54.2367 18.3481 54.1196 18.0894C54.0072 17.8306 53.8363 17.6255 53.6069 17.4741C53.3822 17.3228 53.0942 17.2471 52.7426 17.2471ZM62.0235 22.3667C62.2676 22.3667 62.5045 22.3423 62.7339 22.2935C62.9683 22.2446 63.2003 22.1836 63.4297 22.1104V23.7729C63.1905 23.8804 62.8926 23.9683 62.5362 24.0366C62.1846 24.1099 61.7989 24.1465 61.379 24.1465C60.8907 24.1465 60.4512 24.0684 60.0606 23.9121C59.6749 23.751 59.3697 23.4751 59.1451 23.0845C58.9254 22.689 58.8155 22.1396 58.8155 21.4365V17.4888H57.7462V16.5439L58.9766 15.7969L59.6212 14.0684H61.0494V15.8115H63.3419V17.4888H61.0494V21.4365C61.0494 21.749 61.1373 21.9834 61.313 22.1396C61.4937 22.291 61.7305 22.3667 62.0235 22.3667ZM68.8068 15.6431C69.9055 15.6431 70.7478 15.8823 71.3337 16.3608C71.9196 16.8394 72.2126 17.5669 72.2126 18.5435V24H70.6525L70.2204 22.8867H70.1618C69.9274 23.1797 69.6882 23.4189 69.444 23.6045C69.1999 23.79 68.9191 23.9268 68.6018 24.0146C68.2844 24.1025 67.8986 24.1465 67.4445 24.1465C66.9611 24.1465 66.5266 24.0537 66.1408 23.8682C65.76 23.6826 65.4597 23.3994 65.2399 23.0186C65.0202 22.6328 64.9104 22.1445 64.9104 21.5537C64.9104 20.6846 65.2155 20.0449 65.8259 19.6348C66.4362 19.2197 67.3518 18.9902 68.5725 18.9463L69.9934 18.9023V18.5435C69.9934 18.1138 69.8811 17.7988 69.6564 17.5986C69.4318 17.3984 69.1193 17.2983 68.7189 17.2983C68.3234 17.2983 67.9353 17.3545 67.5544 17.4668C67.1735 17.5791 66.7927 17.7207 66.4118 17.8916L65.6721 16.3828C66.1066 16.1533 66.5925 15.9727 67.1296 15.8408C67.6716 15.709 68.2307 15.6431 68.8068 15.6431ZM69.9934 20.2061L69.1291 20.2354C68.4064 20.2549 67.9035 20.3843 67.6203 20.6235C67.342 20.8628 67.2028 21.1777 67.2028 21.5684C67.2028 21.9102 67.3029 22.1543 67.5031 22.3008C67.7033 22.4424 67.9646 22.5132 68.2868 22.5132C68.7653 22.5132 69.1682 22.3716 69.4953 22.0884C69.8273 21.8052 69.9934 21.4023 69.9934 20.8799V20.2061ZM77.1136 12.6035V15.2549C77.1136 15.5625 77.1038 15.8677 77.0843 16.1704C77.0697 16.4731 77.0501 16.7075 77.0257 16.8735H77.1136C77.3285 16.5366 77.6214 16.251 77.9925 16.0166C78.3636 15.7773 78.8446 15.6577 79.4354 15.6577C80.3534 15.6577 81.098 16.0166 81.6693 16.7344C82.2406 17.4521 82.5262 18.5044 82.5262 19.8911C82.5262 20.8237 82.3944 21.6074 82.1307 22.2422C81.867 22.8721 81.4984 23.3481 81.0247 23.6704C80.5511 23.9878 80.0018 24.1465 79.3768 24.1465C78.7762 24.1465 78.3026 24.0391 77.9559 23.8242C77.6092 23.6094 77.3285 23.3677 77.1136 23.0991H76.9598L76.5863 24H74.8797V12.6035H77.1136ZM78.7176 17.4448C78.327 17.4448 78.0169 17.5254 77.7874 17.6865C77.5579 17.8477 77.3895 18.0894 77.2821 18.4116C77.1795 18.7339 77.1234 19.1416 77.1136 19.6348V19.8765C77.1136 20.6724 77.2308 21.2827 77.4652 21.7075C77.6996 22.1274 78.1268 22.3374 78.7469 22.3374C79.2059 22.3374 79.5697 22.125 79.8382 21.7002C80.1117 21.2754 80.2484 20.6626 80.2484 19.8618C80.2484 19.061 80.1117 18.458 79.8382 18.0527C79.5648 17.6475 79.1912 17.4448 78.7176 17.4448ZM86.9658 24H84.7319V12.6035H86.9658V24ZM93.0533 15.6577C93.8102 15.6577 94.462 15.8042 95.0089 16.0972C95.5558 16.3853 95.9781 16.8052 96.276 17.3569C96.5738 17.9087 96.7228 18.5825 96.7228 19.3784V20.4624H91.442C91.4664 21.0923 91.6544 21.5879 92.006 21.9492C92.3624 22.3057 92.8556 22.4839 93.4855 22.4839C94.0079 22.4839 94.4864 22.4302 94.921 22.3228C95.3556 22.2153 95.8024 22.0542 96.2613 21.8394V23.5679C95.8561 23.7681 95.4313 23.9146 94.9869 24.0073C94.5475 24.1001 94.0128 24.1465 93.3829 24.1465C92.5626 24.1465 91.8351 23.9951 91.2003 23.6924C90.5704 23.3896 90.0748 22.9282 89.7135 22.3081C89.357 21.688 89.1788 20.9067 89.1788 19.9644C89.1788 19.0073 89.34 18.2114 89.6622 17.5767C89.9894 16.937 90.4435 16.4585 91.0245 16.1411C91.6056 15.8188 92.2819 15.6577 93.0533 15.6577ZM93.068 17.2471C92.6334 17.2471 92.2721 17.3862 91.984 17.6646C91.7008 17.9429 91.5372 18.3799 91.4933 18.9756H94.628C94.6232 18.6436 94.5621 18.3481 94.4449 18.0894C94.3326 17.8306 94.1617 17.6255 93.9322 17.4741C93.7076 17.3228 93.4195 17.2471 93.068 17.2471Z" fill="white"/>
</svg>
